<svg width="605" height="549" viewBox="0 0 605 549" fill="none" xmlns="http://www.w3.org/2000/svg">
<mask id="path-1-outside-1_36_237" maskUnits="userSpaceOnUse" x="11" y="25" width="583" height="405" fill="black">
<rect fill="white" x="11" y="25" width="583" height="405"/>
<path d="M267.783 415H26.8164V334.8H53.5498V307.883H80.2832V281.15H107.017V254.417H133.933V227.5H160.667V200.767H187.4V174.033H214.316V120.383H187.4V93.6499H107.017V120.383H80.2832V147.3H26.8164V93.6499H53.5498V66.9165H80.2832V40H214.316V66.9165H241.05V93.6499H267.783V200.767H241.05V227.5H214.316V254.417H187.4V281.15H160.667V307.883H133.933V334.8H107.017V361.533H267.783V415ZM337.217 415H283.75V334.8H310.483V307.883H337.217V281.15H363.95V254.417H390.867V200.767H363.95V174.033H337.217V147.3H310.483V120.383H283.75V40H337.217V93.6499H363.95V120.383H390.867V147.3H417.6V174.033H444.333V147.3H471.25V120.383H497.983V93.6499H524.717V40H578.367V120.383H551.45V147.3H524.717V174.033H497.983V200.767H471.25V254.417H497.983V281.15H524.717V307.883H551.45V334.8H578.367V415H524.717V361.533H497.983V334.8H471.25V307.883H444.333V281.15H417.6V307.883H390.867V334.8H363.95V361.533H337.217V415Z"/>
</mask>
<path d="M267.783 415H26.8164V334.8H53.5498V307.883H80.2832V281.15H107.017V254.417H133.933V227.5H160.667V200.767H187.4V174.033H214.316V120.383H187.4V93.6499H107.017V120.383H80.2832V147.3H26.8164V93.6499H53.5498V66.9165H80.2832V40H214.316V66.9165H241.05V93.6499H267.783V200.767H241.05V227.5H214.316V254.417H187.4V281.15H160.667V307.883H133.933V334.8H107.017V361.533H267.783V415ZM337.217 415H283.75V334.8H310.483V307.883H337.217V281.15H363.95V254.417H390.867V200.767H363.95V174.033H337.217V147.3H310.483V120.383H283.75V40H337.217V93.6499H363.95V120.383H390.867V147.3H417.6V174.033H444.333V147.3H471.25V120.383H497.983V93.6499H524.717V40H578.367V120.383H551.45V147.3H524.717V174.033H497.983V200.767H471.25V254.417H497.983V281.15H524.717V307.883H551.45V334.8H578.367V415H524.717V361.533H497.983V334.8H471.25V307.883H444.333V281.15H417.6V307.883H390.867V334.8H363.95V361.533H337.217V415Z" fill="#1E1E1E"/>
<path d="M267.783 415V430H282.783V415H267.783ZM26.8164 415H11.8164V430H26.8164V415ZM26.8164 334.8V319.8H11.8164V334.8H26.8164ZM53.5498 334.8V349.8H68.5498V334.8H53.5498ZM53.5498 307.883V292.883H38.5498V307.883H53.5498ZM80.2832 307.883V322.883H95.2832V307.883H80.2832ZM80.2832 281.15V266.15H65.2832V281.15H80.2832ZM107.017 281.15V296.15H122.017V281.15H107.017ZM107.017 254.417V239.417H92.0166V254.417H107.017ZM133.933 254.417V269.417H148.933V254.417H133.933ZM133.933 227.5V212.5H118.933V227.5H133.933ZM160.667 227.5V242.5H175.667V227.5H160.667ZM160.667 200.767V185.767H145.667V200.767H160.667ZM187.4 200.767V215.767H202.4V200.767H187.4ZM187.4 174.033V159.033H172.4V174.033H187.4ZM214.316 174.033V189.033H229.316V174.033H214.316ZM214.316 120.383H229.316V105.383H214.316V120.383ZM187.4 120.383H172.4V135.383H187.4V120.383ZM187.4 93.6499H202.4V78.6499H187.4V93.6499ZM107.017 93.6499V78.6499H92.0166V93.6499H107.017ZM107.017 120.383V135.383H122.017V120.383H107.017ZM80.2832 120.383V105.383H65.2832V120.383H80.2832ZM80.2832 147.3V162.3H95.2832V147.3H80.2832ZM26.8164 147.3H11.8164V162.3H26.8164V147.3ZM26.8164 93.6499V78.6499H11.8164V93.6499H26.8164ZM53.5498 93.6499V108.65H68.5498V93.6499H53.5498ZM53.5498 66.9165V51.9165H38.5498V66.9165H53.5498ZM80.2832 66.9165V81.9165H95.2832V66.9165H80.2832ZM80.2832 40V25H65.2832V40H80.2832ZM214.316 40H229.316V25H214.316V40ZM214.316 66.9165H199.316V81.9165H214.316V66.9165ZM241.05 66.9165H256.05V51.9165H241.05V66.9165ZM241.05 93.6499H226.05V108.65H241.05V93.6499ZM267.783 93.6499H282.783V78.6499H267.783V93.6499ZM267.783 200.767V215.767H282.783V200.767H267.783ZM241.05 200.767V185.767H226.05V200.767H241.05ZM241.05 227.5V242.5H256.05V227.5H241.05ZM214.316 227.5V212.5H199.316V227.5H214.316ZM214.316 254.417V269.417H229.316V254.417H214.316ZM187.4 254.417V239.417H172.4V254.417H187.4ZM187.4 281.15V296.15H202.4V281.15H187.4ZM160.667 281.15V266.15H145.667V281.15H160.667ZM160.667 307.883V322.883H175.667V307.883H160.667ZM133.933 307.883V292.883H118.933V307.883H133.933ZM133.933 334.8V349.8H148.933V334.8H133.933ZM107.017 334.8V319.8H92.0166V334.8H107.017ZM107.017 361.533H92.0166V376.533H107.017V361.533ZM267.783 361.533H282.783V346.533H267.783V361.533ZM267.783 415V400H26.8164V415V430H267.783V415ZM26.8164 415H41.8164V334.8H26.8164H11.8164V415H26.8164ZM26.8164 334.8V349.8H53.5498V334.8V319.8H26.8164V334.8ZM53.5498 334.8H68.5498V307.883H53.5498H38.5498V334.8H53.5498ZM53.5498 307.883V322.883H80.2832V307.883V292.883H53.5498V307.883ZM80.2832 307.883H95.2832V281.15H80.2832H65.2832V307.883H80.2832ZM80.2832 281.15V296.15H107.017V281.15V266.15H80.2832V281.15ZM107.017 281.15H122.017V254.417H107.017H92.0166V281.15H107.017ZM107.017 254.417V269.417H133.933V254.417V239.417H107.017V254.417ZM133.933 254.417H148.933V227.5H133.933H118.933V254.417H133.933ZM133.933 227.5V242.5H160.667V227.5V212.5H133.933V227.5ZM160.667 227.5H175.667V200.767H160.667H145.667V227.5H160.667ZM160.667 200.767V215.767H187.4V200.767V185.767H160.667V200.767ZM187.4 200.767H202.4V174.033H187.4H172.4V200.767H187.4ZM187.4 174.033V189.033H214.316V174.033V159.033H187.4V174.033ZM214.316 174.033H229.316V120.383H214.316H199.316V174.033H214.316ZM214.316 120.383V105.383H187.4V120.383V135.383H214.316V120.383ZM187.4 120.383H202.4V93.6499H187.4H172.4V120.383H187.4ZM187.4 93.6499V78.6499H107.017V93.6499V108.65H187.4V93.6499ZM107.017 93.6499H92.0166V120.383H107.017H122.017V93.6499H107.017ZM107.017 120.383V105.383H80.2832V120.383V135.383H107.017V120.383ZM80.2832 120.383H65.2832V147.3H80.2832H95.2832V120.383H80.2832ZM80.2832 147.3V132.3H26.8164V147.3V162.3H80.2832V147.3ZM26.8164 147.3H41.8164V93.6499H26.8164H11.8164V147.3H26.8164ZM26.8164 93.6499V108.65H53.5498V93.6499V78.6499H26.8164V93.6499ZM53.5498 93.6499H68.5498V66.9165H53.5498H38.5498V93.6499H53.5498ZM53.5498 66.9165V81.9165H80.2832V66.9165V51.9165H53.5498V66.9165ZM80.2832 66.9165H95.2832V40H80.2832H65.2832V66.9165H80.2832ZM80.2832 40V55H214.316V40V25H80.2832V40ZM214.316 40H199.316V66.9165H214.316H229.316V40H214.316ZM214.316 66.9165V81.9165H241.05V66.9165V51.9165H214.316V66.9165ZM241.05 66.9165H226.05V93.6499H241.05H256.05V66.9165H241.05ZM241.05 93.6499V108.65H267.783V93.6499V78.6499H241.05V93.6499ZM267.783 93.6499H252.783V200.767H267.783H282.783V93.6499H267.783ZM267.783 200.767V185.767H241.05V200.767V215.767H267.783V200.767ZM241.05 200.767H226.05V227.5H241.05H256.05V200.767H241.05ZM241.05 227.5V212.5H214.316V227.5V242.5H241.05V227.5ZM214.316 227.5H199.316V254.417H214.316H229.316V227.5H214.316ZM214.316 254.417V239.417H187.4V254.417V269.417H214.316V254.417ZM187.4 254.417H172.4V281.15H187.4H202.4V254.417H187.4ZM187.4 281.15V266.15H160.667V281.15V296.15H187.4V281.15ZM160.667 281.15H145.667V307.883H160.667H175.667V281.15H160.667ZM160.667 307.883V292.883H133.933V307.883V322.883H160.667V307.883ZM133.933 307.883H118.933V334.8H133.933H148.933V307.883H133.933ZM133.933 334.8V319.8H107.017V334.8V349.8H133.933V334.8ZM107.017 334.8H92.0166V361.533H107.017H122.017V334.8H107.017ZM107.017 361.533V376.533H267.783V361.533V346.533H107.017V361.533ZM267.783 361.533H252.783V415H267.783H282.783V361.533H267.783ZM337.217 415V430H352.217V415H337.217ZM283.75 415H268.75V430H283.75V415ZM283.75 334.8V319.8H268.75V334.8H283.75ZM310.483 334.8V349.8H325.483V334.8H310.483ZM310.483 307.883V292.883H295.483V307.883H310.483ZM337.217 307.883V322.883H352.217V307.883H337.217ZM337.217 281.15V266.15H322.217V281.15H337.217ZM363.95 281.15V296.15H378.95V281.15H363.95ZM363.95 254.417V239.417H348.95V254.417H363.95ZM390.867 254.417V269.417H405.867V254.417H390.867ZM390.867 200.767H405.867V185.767H390.867V200.767ZM363.95 200.767H348.95V215.767H363.95V200.767ZM363.95 174.033H378.95V159.033H363.95V174.033ZM337.217 174.033H322.217V189.033H337.217V174.033ZM337.217 147.3H352.217V132.3H337.217V147.3ZM310.483 147.3H295.483V162.3H310.483V147.3ZM310.483 120.383H325.483V105.383H310.483V120.383ZM283.75 120.383H268.75V135.383H283.75V120.383ZM283.75 40V25H268.75V40H283.75ZM337.217 40H352.217V25H337.217V40ZM337.217 93.6499H322.217V108.65H337.217V93.6499ZM363.95 93.6499H378.95V78.6499H363.95V93.6499ZM363.95 120.383H348.95V135.383H363.95V120.383ZM390.867 120.383H405.867V105.383H390.867V120.383ZM390.867 147.3H375.867V162.3H390.867V147.3ZM417.6 147.3H432.6V132.3H417.6V147.3ZM417.6 174.033H402.6V189.033H417.6V174.033ZM444.333 174.033V189.033H459.333V174.033H444.333ZM444.333 147.3V132.3H429.333V147.3H444.333ZM471.25 147.3V162.3H486.25V147.3H471.25ZM471.25 120.383V105.383H456.25V120.383H471.25ZM497.983 120.383V135.383H512.983V120.383H497.983ZM497.983 93.6499V78.6499H482.983V93.6499H497.983ZM524.717 93.6499V108.65H539.717V93.6499H524.717ZM524.717 40V25H509.717V40H524.717ZM578.367 40H593.367V25H578.367V40ZM578.367 120.383V135.383H593.367V120.383H578.367ZM551.45 120.383V105.383H536.45V120.383H551.45ZM551.45 147.3V162.3H566.45V147.3H551.45ZM524.717 147.3V132.3H509.717V147.3H524.717ZM524.717 174.033V189.033H539.717V174.033H524.717ZM497.983 174.033V159.033H482.983V174.033H497.983ZM497.983 200.767V215.767H512.983V200.767H497.983ZM471.25 200.767V185.767H456.25V200.767H471.25ZM471.25 254.417H456.25V269.417H471.25V254.417ZM497.983 254.417H512.983V239.417H497.983V254.417ZM497.983 281.15H482.983V296.15H497.983V281.15ZM524.717 281.15H539.717V266.15H524.717V281.15ZM524.717 307.883H509.717V322.883H524.717V307.883ZM551.45 307.883H566.45V292.883H551.45V307.883ZM551.45 334.8H536.45V349.8H551.45V334.8ZM578.367 334.8H593.367V319.8H578.367V334.8ZM578.367 415V430H593.367V415H578.367ZM524.717 415H509.717V430H524.717V415ZM524.717 361.533H539.717V346.533H524.717V361.533ZM497.983 361.533H482.983V376.533H497.983V361.533ZM497.983 334.8H512.983V319.8H497.983V334.8ZM471.25 334.8H456.25V349.8H471.25V334.8ZM471.25 307.883H486.25V292.883H471.25V307.883ZM444.333 307.883H429.333V322.883H444.333V307.883ZM444.333 281.15H459.333V266.15H444.333V281.15ZM417.6 281.15V266.15H402.6V281.15H417.6ZM417.6 307.883V322.883H432.6V307.883H417.6ZM390.867 307.883V292.883H375.867V307.883H390.867ZM390.867 334.8V349.8H405.867V334.8H390.867ZM363.95 334.8V319.8H348.95V334.8H363.95ZM363.95 361.533V376.533H378.95V361.533H363.95ZM337.217 361.533V346.533H322.217V361.533H337.217ZM337.217 415V400H283.75V415V430H337.217V415ZM283.75 415H298.75V334.8H283.75H268.75V415H283.75ZM283.75 334.8V349.8H310.483V334.8V319.8H283.75V334.8ZM310.483 334.8H325.483V307.883H310.483H295.483V334.8H310.483ZM310.483 307.883V322.883H337.217V307.883V292.883H310.483V307.883ZM337.217 307.883H352.217V281.15H337.217H322.217V307.883H337.217ZM337.217 281.15V296.15H363.95V281.15V266.15H337.217V281.15ZM363.95 281.15H378.95V254.417H363.95H348.95V281.15H363.95ZM363.95 254.417V269.417H390.867V254.417V239.417H363.95V254.417ZM390.867 254.417H405.867V200.767H390.867H375.867V254.417H390.867ZM390.867 200.767V185.767H363.95V200.767V215.767H390.867V200.767ZM363.95 200.767H378.95V174.033H363.95H348.95V200.767H363.95ZM363.95 174.033V159.033H337.217V174.033V189.033H363.95V174.033ZM337.217 174.033H352.217V147.3H337.217H322.217V174.033H337.217ZM337.217 147.3V132.3H310.483V147.3V162.3H337.217V147.3ZM310.483 147.3H325.483V120.383H310.483H295.483V147.3H310.483ZM310.483 120.383V105.383H283.75V120.383V135.383H310.483V120.383ZM283.75 120.383H298.75V40H283.75H268.75V120.383H283.75ZM283.75 40V55H337.217V40V25H283.75V40ZM337.217 40H322.217V93.6499H337.217H352.217V40H337.217ZM337.217 93.6499V108.65H363.95V93.6499V78.6499H337.217V93.6499ZM363.95 93.6499H348.95V120.383H363.95H378.95V93.6499H363.95ZM363.95 120.383V135.383H390.867V120.383V105.383H363.95V120.383ZM390.867 120.383H375.867V147.3H390.867H405.867V120.383H390.867ZM390.867 147.3V162.3H417.6V147.3V132.3H390.867V147.3ZM417.6 147.3H402.6V174.033H417.6H432.6V147.3H417.6ZM417.6 174.033V189.033H444.333V174.033V159.033H417.6V174.033ZM444.333 174.033H459.333V147.3H444.333H429.333V174.033H444.333ZM444.333 147.3V162.3H471.25V147.3V132.3H444.333V147.3ZM471.25 147.3H486.25V120.383H471.25H456.25V147.3H471.25ZM471.25 120.383V135.383H497.983V120.383V105.383H471.25V120.383ZM497.983 120.383H512.983V93.6499H497.983H482.983V120.383H497.983ZM497.983 93.6499V108.65H524.717V93.6499V78.6499H497.983V93.6499ZM524.717 93.6499H539.717V40H524.717H509.717V93.6499H524.717ZM524.717 40V55H578.367V40V25H524.717V40ZM578.367 40H563.367V120.383H578.367H593.367V40H578.367ZM578.367 120.383V105.383H551.45V120.383V135.383H578.367V120.383ZM551.45 120.383H536.45V147.3H551.45H566.45V120.383H551.45ZM551.45 147.3V132.3H524.717V147.3V162.3H551.45V147.3ZM524.717 147.3H509.717V174.033H524.717H539.717V147.3H524.717ZM524.717 174.033V159.033H497.983V174.033V189.033H524.717V174.033ZM497.983 174.033H482.983V200.767H497.983H512.983V174.033H497.983ZM497.983 200.767V185.767H471.25V200.767V215.767H497.983V200.767ZM471.25 200.767H456.25V254.417H471.25H486.25V200.767H471.25ZM471.25 254.417V269.417H497.983V254.417V239.417H471.25V254.417ZM497.983 254.417H482.983V281.15H497.983H512.983V254.417H497.983ZM497.983 281.15V296.15H524.717V281.15V266.15H497.983V281.15ZM524.717 281.15H509.717V307.883H524.717H539.717V281.15H524.717ZM524.717 307.883V322.883H551.45V307.883V292.883H524.717V307.883ZM551.45 307.883H536.45V334.8H551.45H566.45V307.883H551.45ZM551.45 334.8V349.8H578.367V334.8V319.8H551.45V334.8ZM578.367 334.8H563.367V415H578.367H593.367V334.8H578.367ZM578.367 415V400H524.717V415V430H578.367V415ZM524.717 415H539.717V361.533H524.717H509.717V415H524.717ZM524.717 361.533V346.533H497.983V361.533V376.533H524.717V361.533ZM497.983 361.533H512.983V334.8H497.983H482.983V361.533H497.983ZM497.983 334.8V319.8H471.25V334.8V349.8H497.983V334.8ZM471.25 334.8H486.25V307.883H471.25H456.25V334.8H471.25ZM471.25 307.883V292.883H444.333V307.883V322.883H471.25V307.883ZM444.333 307.883H459.333V281.15H444.333H429.333V307.883H444.333ZM444.333 281.15V266.15H417.6V281.15V296.15H444.333V281.15ZM417.6 281.15H402.6V307.883H417.6H432.6V281.15H417.6ZM417.6 307.883V292.883H390.867V307.883V322.883H417.6V307.883ZM390.867 307.883H375.867V334.8H390.867H405.867V307.883H390.867ZM390.867 334.8V319.8H363.95V334.8V349.8H390.867V334.8ZM363.95 334.8H348.95V361.533H363.95H378.95V334.8H363.95ZM363.95 361.533V346.533H337.217V361.533V376.533H363.95V361.533ZM337.217 361.533H322.217V415H337.217H352.217V361.533H337.217Z" fill="#87FB67" mask="url(#path-1-outside-1_36_237)"/>
<path d="M13 417V469.636H39.3182V495.955H65.6364V522.273H91.9545V548.591H223.545V522.273H249.864V495.955H276.182V469.636H328.818V495.955H355.136V522.273H381.455V548.591H513.045V522.273H539.364V495.955H565.682V469.636H592V417H13Z" fill="#87FB67"/>
<rect x="65.6364" y="443.318" width="26.3182" height="26.3182" fill="#101010"/>
<rect x="118.273" y="443.318" width="26.3182" height="26.3182" fill="#101010"/>
<rect x="91.9546" y="469.637" width="26.3182" height="26.3182" fill="#101010"/>
<rect x="144.591" y="469.637" width="26.3182" height="26.3182" fill="#101010"/>
<rect x="118.273" y="495.955" width="26.3182" height="26.3182" fill="#101010"/>
<rect x="170.909" y="495.955" width="26.3182" height="26.3182" fill="#101010"/>
<rect x="355.136" y="443.318" width="26.3182" height="26.3182" fill="#101010"/>
<rect x="407.773" y="443.318" width="26.3182" height="26.3182" fill="#101010"/>
<rect x="381.455" y="469.637" width="26.3182" height="26.3182" fill="#101010"/>
<rect x="434.091" y="469.637" width="26.3182" height="26.3182" fill="#101010"/>
<rect x="407.773" y="495.955" width="26.3182" height="26.3182" fill="#101010"/>
<rect x="460.409" y="495.955" width="26.3182" height="26.3182" fill="#101010"/>
</svg>
