<svg width="64" height="64" viewBox="0 0 64 64" fill="none" xmlns="http://www.w3.org/2000/svg">
<path d="M60.9399 32.01H63.9999V44.19H60.9399V32.01Z" fill="#101010"/>
<path d="M57.9 44.19H60.94V47.25H57.9V44.19Z" fill="#101010"/>
<path d="M57.9 28.95H60.94V32.01H57.9V28.95Z" fill="#101010"/>
<path d="M54.86 47.25H57.9V50.29H54.86V47.25Z" fill="#101010"/>
<path d="M54.86 25.91H57.9V28.95H54.86V25.91Z" fill="#101010"/>
<path d="M6.09998 50.29H54.86V53.33H6.09998V50.29Z" fill="#101010"/>
<path d="M48.76 22.87H54.86V25.91H48.76V22.87Z" fill="#101010"/>
<path d="M45.7 19.81H48.7599V22.87H45.7V19.81Z" fill="#101010"/>
<path d="M42.66 35.05H45.7V38.09H42.66V35.05Z" fill="#101010"/>
<path d="M42.66 28.95H45.7V32.01H42.66V28.95Z" fill="#101010"/>
<path d="M42.66 16.77H45.7V19.81H42.66V16.77Z" fill="#101010"/>
<path d="M39.62 32.01H42.66V35.05H39.62V32.01Z" fill="#101010"/>
<path d="M36.5601 35.05H39.6201V38.09H36.5601V35.05Z" fill="#101010"/>
<path d="M36.5601 28.95H39.6201V32.01H36.5601V28.95Z" fill="#101010"/>
<path d="M36.5601 13.71H42.6601V16.77H36.5601V13.71Z" fill="#101010"/>
<path d="M27.42 44.19H33.52V47.25H39.62V41.15H27.42V44.19Z" fill="#101010"/>
<path d="M27.42 10.67H36.56V13.71H27.42V10.67Z" fill="#101010"/>
<path d="M24.38 35.05H27.42V38.09H24.38V35.05Z" fill="#101010"/>
<path d="M24.38 28.95H27.42V32.01H24.38V28.95Z" fill="#101010"/>
<path d="M21.3199 13.71H27.4199V16.77H21.3199V13.71Z" fill="#101010"/>
<path d="M21.3199 32.01H24.3799V35.05H21.3199V32.01Z" fill="#101010"/>
<path d="M18.28 35.05H21.32V38.09H18.28V35.05Z" fill="#101010"/>
<path d="M18.28 28.95H21.32V32.01H18.28V28.95Z" fill="#101010"/>
<path d="M18.28 16.77H21.32V19.81H18.28V16.77Z" fill="#101010"/>
<path d="M15.24 19.81H18.28V25.91H15.24V19.81Z" fill="#101010"/>
<path d="M6.09998 25.91H15.24V28.95H6.09998V25.91Z" fill="#101010"/>
<path d="M3.04004 47.25H6.10004V50.29H3.04004V47.25Z" fill="#101010"/>
<path d="M3.04004 28.95H6.10004V32.01H3.04004V28.95Z" fill="#101010"/>
<path d="M0 32.01H3.04V47.25H0V32.01Z" fill="#101010"/>
</svg>
